<?xml version="1.0" encoding="UTF-8" standalone="no"?>
<svg
   version="1.1"
   x="0"
   y="0"
   width="816"
   height="552"
   viewBox="0, 0, 816, 552"
   id="svg191"
   sodipodi:docname="parents.svg"
   inkscape:export-filename="parents.png"
   inkscape:export-xdpi="23.825474"
   inkscape:export-ydpi="23.825474"
   inkscape:version="1.2.2 (b0a8486541, 2022-12-01)"
   xmlns:inkscape="http://www.inkscape.org/namespaces/inkscape"
   xmlns:sodipodi="http://sodipodi.sourceforge.net/DTD/sodipodi-0.dtd"
   xmlns="http://www.w3.org/2000/svg"
   xmlns:svg="http://www.w3.org/2000/svg">
  <sodipodi:namedview
     id="namedview193"
     pagecolor="#ffffff"
     bordercolor="#666666"
     borderopacity="1.0"
     inkscape:showpageshadow="2"
     inkscape:pageopacity="0.0"
     inkscape:pagecheckerboard="0"
     inkscape:deskcolor="#d1d1d1"
     showgrid="false"
     inkscape:zoom="0.42753623"
     inkscape:cx="406.98305"
     inkscape:cy="277.16949"
     inkscape:current-layer="svg191" />
  <defs
     id="defs8">
    <clipPath
       id="Clip_1">
      <path
         d="M418,-50 L844.664,-50 L844.664,549.76 L418,549.76 z"
         id="path2" />
    </clipPath>
    <clipPath
       id="Clip_2">
      <path
         d="M3.164,-2.551 L816.931,-2.551 L816.931,547.806 L3.164,547.806 z"
         id="path5" />
    </clipPath>
  </defs>
  <g
     id="Layer_1">
    <g
       clip-path="url(#Clip_2)"
       id="g188">
      <path
         d="M10.176,555.672 C10.176,555.672 14.268,533.924 15.02,528.924 C15.768,523.924 20.02,499.924 21.52,499.172 C23.02,498.424 31.02,460.424 32.52,451.924 C34.02,443.424 41.268,421.924 55.52,415.672 C69.768,409.424 99.268,393.924 103.02,391.324 C106.768,388.72 113.424,393.944 113.424,393.944 L263.78,393.944 C263.78,393.944 270.436,388.72 274.188,391.324 C277.936,393.924 307.436,409.424 321.688,415.672 C335.936,421.924 343.188,443.424 344.688,451.924 C346.188,460.424 358.352,507.424 359.1,512.424 C359.852,517.424 367.032,555.672 367.032,555.672 L10.176,555.672"
         fill="#73AC69"
         id="path10" />
      <path
         d="M159.004,371.376 C159.004,371.376 143.6,371.376 132.268,390.672 C115.356,419.472 116.936,455.672 116.936,455.672 C116.936,455.672 153.088,431.672 158.012,432.672 L219.196,432.672 C224.116,431.672 260.272,455.672 260.272,455.672 C260.272,455.672 261.852,419.472 244.936,390.672 C233.6,371.376 218.204,371.376 218.204,371.376 L159.004,371.376"
         fill="#F3B57D"
         id="path12" />
      <path
         d="M119.416,426.848 C111.288,411.116 106.504,398.936 106.504,398.936 L106.204,398.004 L135.728,385.508 L241.476,385.508 L271,398.004 L270.704,398.936 C270.704,398.936 265.92,411.108 257.796,426.832 L246.536,446.852 C231.476,471.328 210.788,496.008 188.6,496.008 C166.42,496.008 145.74,471.332 130.68,446.864 L119.416,426.848"
         fill="#F3B57D"
         id="path14" />
      <path
         d="M159.424,365.72 C159.424,365.72 159.688,382.688 154.024,389.688 L153.204,390.92 C153.42,401.064 155.94,416.212 167.268,428.34 C173.248,434.748 182.46,446.104 188.6,455.672 L190.136,454.592 C194.816,446.892 201.68,437.184 209.936,428.34 C221.084,416.412 223.704,401.564 223.992,391.424 L223.188,389.688 C217.52,382.688 217.784,365.72 217.784,365.72"
         fill="#F7CCAA"
         id="path16" />
      <path
         d="M160.48,372.616 C160.48,372.616 201.84,378.616 217.324,372.616 L221.736,385.82 C221.736,385.82 203.712,413.652 153.568,403.948 L153.62,388.104 C153.62,388.104 160.808,382.616 160.48,372.616"
         fill="#CF957E"
         id="path18" />
      <path
         d="M163.768,446.176 C163.768,446.176 168.272,439.68 165.6,436.176 C162.936,432.672 156.664,431.112 154.024,433.008 C151.38,434.908 131.76,446.176 131.76,446.176 L141.248,462.588 L163.768,446.176"
         fill="#B98668"
         id="path20" />
      <path
         d="M213.68,446.176 C213.68,446.176 209.176,439.68 211.844,436.176 C214.512,432.672 220.78,431.112 223.424,433.008 C226.072,434.908 245.688,446.176 245.688,446.176 L236.196,462.588 L213.68,446.176"
         fill="#B98668"
         id="path22" />
      <path
         d="M105.096,391.76 L63.184,412.136 C63.184,412.136 45.308,419.388 41.936,426.848 C38.568,434.312 15.112,527.628 15.112,527.628 L10.176,555.672 L22.472,555.672 C22.472,555.672 41.852,456.096 45.476,447.384 C49.776,437.036 59.172,426.732 65.52,424.672 C83.268,418.924 109.508,405.092 109.508,405.092 L105.096,391.76"
         fill="#C9E1BB"
         id="path24" />
      <path
         d="M274.188,391.324 L269.836,404.672 C269.836,404.672 316.836,425.172 323.336,430.672 C329.836,436.172 341.836,446.672 341.836,446.672 C341.836,446.672 334.836,422.672 326.836,419.672 C318.836,416.672 274.188,391.324 274.188,391.324"
         fill="#C9E1BB"
         id="path26" />
      <path
         d="M159.424,365.72 C159.424,365.72 159.688,382.688 154.024,389.688 M218.204,371.376 C218.204,371.376 233.6,371.376 244.936,390.672 C261.852,419.472 260.272,455.672 260.272,455.672 C260.272,455.672 224.116,431.672 219.196,432.672 C214.272,433.672 211.6,437.672 211.6,437.672 M223.272,379.672 C223.272,379.672 228.768,408.176 209.936,428.34 C195.452,443.848 185.268,462.008 183.6,467.34 C181.936,472.672 182.864,494.672 182.864,494.672 M217.784,365.72 C217.784,365.72 217.52,382.688 223.188,389.688 M159.004,371.376 C159.004,371.376 143.6,371.376 132.268,390.672 C115.356,419.472 116.936,455.672 116.936,455.672 C116.936,455.672 153.088,431.672 158.012,432.672 C162.936,433.672 165.6,437.672 165.6,437.672 M153.936,379.672 C153.936,379.672 148.436,408.176 167.268,428.34 C173.248,434.748 182.46,446.104 188.6,455.672 M135.728,385.508 L106.204,398.004 M113.424,393.944 C113.424,393.944 106.768,388.72 103.02,391.324 C99.268,393.924 69.768,409.424 55.52,415.672 C41.268,421.924 34.02,443.424 32.52,451.924 C31.02,460.424 16.496,519.892 15.296,527.196 C15.18,527.9 15.084,528.488 15.02,528.924 C14.268,533.924 10.176,555.672 10.176,555.672 M60.916,454.12 C66.14,471.32 73.936,498.392 74.268,507.672 C74.768,521.672 74.268,559.172 74.268,559.172 M241.476,385.508 L271,398.004 M263.78,393.944 C263.78,393.944 270.436,388.72 274.188,391.324 C277.936,393.924 307.436,409.424 321.688,415.672 C335.936,421.924 343.188,443.424 344.688,451.924 C346.188,460.424 358.352,507.424 359.1,512.424 C359.852,517.424 367.032,555.672 367.032,555.672 M119.416,426.848 C111.288,411.116 106.504,398.936 106.504,398.936 C106.508,398.936 105.196,395.58 106.004,393.344 M246.536,446.852 C231.476,471.328 210.788,496.008 188.6,496.008 C166.42,496.008 145.74,471.332 130.68,446.864 M271.204,393.344 C272.012,395.58 270.7,398.936 270.704,398.936 C270.704,398.936 265.92,411.108 257.796,426.832"
         fill-opacity="0"
         stroke="#1A1919"
         stroke-width="6.4"
         stroke-linecap="round"
         stroke-linejoin="round"
         id="path28" />
      <path
         d="M117.016,447.868 C102.348,425.132 92.836,403.168 94.216,396.324 M256.592,453.264 C237.452,481.268 211.432,509.004 188.604,509.004 C165.952,509.004 139.676,481.408 120.588,453.264 M284.292,398.004 C284.292,404.624 274.6,425.776 260.196,447.864"
         fill-opacity="0"
         stroke="#1A1919"
         stroke-width="4.8"
         stroke-linecap="round"
         stroke-linejoin="round"
         id="path30" />
      <path
         d="M315.424,457 C310.248,474.2 303.252,498.896 302.936,507.672 C302.436,521.672 302.936,559.172 302.936,559.172"
         fill-opacity="0"
         stroke="#1A1919"
         stroke-width="6.4"
         stroke-linecap="round"
         stroke-linejoin="round"
         id="path32" />
      <path
         d="M204.1,476.672 C204.1,479.988 201.42,482.672 198.1,482.672 C194.788,482.672 192.1,479.988 192.1,476.672 C192.1,473.36 194.788,470.672 198.1,470.672 C201.42,470.672 204.1,473.36 204.1,476.672"
         fill="#FFFFFE"
         id="path34" />
      <path
         d="M204.1,476.672 C204.1,479.988 201.42,482.672 198.1,482.672 C194.788,482.672 192.1,479.988 192.1,476.672 C192.1,473.36 194.788,470.672 198.1,470.672 C201.42,470.672 204.1,473.36 204.1,476.672 z"
         fill-opacity="0"
         stroke="#1A1919"
         stroke-width="4"
         stroke-linecap="round"
         stroke-linejoin="round"
         id="path36" />
      <path
         d="M50.768,474.964 C50.768,474.964 55.048,514.672 74.492,532.672 M327.268,470.672 C327.268,470.672 310.828,517.004 302.716,521.172 M302.736,535.528 C302.736,535.528 325.94,514.032 339.752,521.172 M72.1,543.532 C72.1,543.532 48.896,522.036 35.084,529.176"
         fill-opacity="0"
         stroke="#1A1919"
         stroke-width="4.8"
         stroke-linecap="round"
         stroke-linejoin="round"
         id="path38" />
      <path
         d="M69.936,54.34 C69.936,54.34 2.584,102.172 34.272,185.008 L46.204,207.676 L334.268,207.676 L342.936,185.008 C371.084,99.424 307.268,54.34 307.268,54.34 L69.936,54.34"
         fill="#CBCCCB"
         id="path40" />
      <path
         d="M320.6,196.672 C320.6,196.672 329.936,184.676 342.936,185.008 C355.936,185.34 376.936,204.004 360.6,242.672 C344.272,281.34 322.264,283.34 312.936,283.676"
         fill="#F7CCAA"
         id="path42" />
      <path
         d="M56.604,196.672 C56.604,196.672 47.272,184.676 34.272,185.008 C21.272,185.34 0.272,204.004 16.604,242.672 C32.936,281.34 54.94,283.34 64.272,283.676"
         fill="#F7CCAA"
         id="path44" />
      <path
         d="M59.272,232.94 C64.852,243.148 66.804,254.124 59.272,258.244 C55.868,260.108 54.016,259.364 49.276,256.864 C45.208,259.152 38.972,256.156 31.936,243.576 C26.256,233.428 27.872,220.896 35.408,216.776 C42.94,212.656 53.692,222.736 59.272,232.94"
         fill="#CF957E"
         id="path46" />
      <path
         d="M315.744,232.94 C310.164,243.148 308.212,254.124 315.744,258.244 C319.148,260.108 321,259.364 325.74,256.864 C329.804,259.152 336.04,256.156 343.08,243.576 C348.756,233.428 347.14,220.896 339.608,216.776 C332.072,212.656 321.32,222.736 315.744,232.94"
         fill="#CF957E"
         id="path48" />
      <path
         d="M307.268,54.34 C277.268,16.676 221.268,5.172 188.268,5.172 L188.936,5.172 C155.936,5.172 99.936,16.676 69.936,54.34 C63.936,63.004 57.936,97.672 57.936,97.672 C64.272,89.004 82.268,84.672 82.268,84.672 C75.6,91.672 63.604,126.008 63.604,126.008 L77.604,120.34 C63.268,139.676 58.272,185.672 58.272,185.672 C58.268,185.672 53.088,228.152 60.936,268.676 C77.264,352.984 145.268,379.34 188.6,379.34 C231.936,379.34 299.944,352.984 316.268,268.676 C324.116,228.152 318.936,185.672 318.936,185.672 C318.936,185.672 313.936,139.676 299.6,120.34 L313.6,126.008 C313.6,126.008 301.604,91.672 294.936,84.672 C294.936,84.672 312.936,89.004 319.268,97.672 C319.268,97.672 313.268,63.004 307.268,54.34"
         fill="#F7CCAA"
         id="path50" />
      <path
         d="M208.088,111.672 C208.088,111.672 274.752,140.34 286.752,152.34 C286.752,152.34 288.416,135.672 283.748,126.34 C283.748,126.34 258.416,110.008 208.088,111.672"
         fill="#CBCCCB"
         id="path52" />
      <path
         d="M170.272,111.672 C170.272,111.672 103.604,140.34 91.604,152.34 C91.604,152.34 89.94,135.672 94.604,126.34 C94.604,126.34 119.936,110.008 170.272,111.672"
         fill="#CBCCCB"
         id="path54" />
      <path
         d="M123.624,228.656 C123.624,236.416 111.588,242.712 96.732,242.712 C81.88,242.712 69.836,236.416 69.836,228.656 C69.836,220.892 81.88,214.596 96.732,214.596 C111.588,214.596 123.624,220.892 123.624,228.656"
         fill="#EC9A86"
         id="path56" />
      <path
         d="M309.624,228.656 C309.624,236.416 297.588,242.712 282.732,242.712 C267.88,242.712 255.836,236.416 255.836,228.656 C255.836,220.892 267.88,214.596 282.732,214.596 C297.588,214.596 309.624,220.892 309.624,228.656"
         fill="#EC9A86"
         id="path58" />
      <path
         d="M164.092,231.06 C164.092,231.06 168.744,240.964 188.6,240.964 C208.468,240.964 213.124,231.06 213.124,231.06 C213.124,246.068 202.148,258.228 188.6,258.228 C175.072,258.228 164.092,246.068 164.092,231.06"
         fill="#CF957E"
         id="path60" />
      <path
         d="M284.336,304.008 C286.168,300.676 284.268,293.824 281.668,286.008 C276.004,269.008 255.836,261.508 255.836,261.508 C255.836,261.508 245.6,264.66 254.168,271.34 C267.2,281.508 272.608,291.16 276.004,301.34 C279.504,311.84 282.504,307.34 284.336,304.008"
         fill="#CF957E"
         id="path62" />
      <path
         d="M95.36,304.008 C93.528,300.676 95.424,293.824 98.028,286.008 C103.692,269.008 123.86,261.508 123.86,261.508 C123.86,261.508 134.092,264.66 125.528,271.34 C112.496,281.508 107.088,291.16 103.692,301.34 C100.192,311.84 97.192,307.34 95.36,304.008"
         fill="#CF957E"
         id="path64" />
      <path
         d="M213.944,325.84 C216.472,328.192 206.196,340.292 188.6,340.288 C171.008,340.292 160.732,328.192 163.26,325.84 C165.484,323.192 176.096,328.128 188.6,327.852 C201.104,328.128 211.72,323.192 213.944,325.84"
         fill="#CF957E"
         id="path66" />
      <path
         d="M272.244,60.248 C270.392,67.088 260.26,69.368 249.608,65.348 C238.96,61.316 231.836,52.52 233.688,45.68 C235.54,38.844 245.68,36.568 256.328,40.588 C266.968,44.612 274.1,53.42 272.244,60.248"
         fill="#FEEBD2"
         id="path68" />
      <path
         d="M33.676,183.64 C33.676,183.64 17.836,138.172 35.836,98.672 C35.836,98.672 30.416,156.216 63.088,165.472 L56.592,196.66 L33.676,183.64"
         fill="#8C8D8C"
         id="path70" />
      <path
         d="M342.936,183.64 C342.936,183.64 360.472,122.708 340.336,100.672 C340.336,100.672 346.196,156.216 313.524,165.472 L320.016,196.66 L342.936,183.64"
         fill="#8C8D8C"
         id="path72" />
      <path
         d="M320.6,196.672 C320.6,196.672 329.936,184.676 342.936,185.008 C355.936,185.34 376.936,204.004 360.6,242.672 C344.272,281.34 322.264,283.34 312.936,283.676"
         fill-opacity="0"
         stroke="#1A1919"
         stroke-width="6.4"
         stroke-linecap="round"
         stroke-linejoin="round"
         id="path74" />
      <path
         d="M347.188,209.272 C347.188,209.272 333.812,198.94 320.736,232.94"
         fill-opacity="0"
         stroke="#1A1919"
         stroke-width="4.8"
         stroke-linecap="round"
         stroke-linejoin="round"
         id="path76" />
      <path
         d="M256.276,262.676 C256.276,262.676 275.004,269.008 281.004,286.676 C283.652,294.472 282.936,304.676 282.936,304.676 M121.836,262.172 C121.836,262.172 103.108,268.508 97.108,286.172 C94.46,293.972 95.176,304.172 95.176,304.172"
         fill-opacity="0"
         stroke="#1A1919"
         stroke-width="6.4"
         stroke-linecap="round"
         stroke-linejoin="round"
         id="path78" />
      <path
         d="M215.752,194.42 C218.416,183.752 224.728,166.3 235.084,160.084 C251.752,150.084 266.752,170.084 273.084,201.084"
         fill-opacity="0"
         stroke="#1A1919"
         stroke-width="8"
         stroke-linecap="round"
         stroke-linejoin="round"
         id="path80" />
      <path
         d="M208.088,111.672 C208.088,111.672 274.752,140.34 286.752,152.34 C286.752,152.34 288.416,135.672 283.748,126.34 C283.748,126.34 258.416,110.008 208.088,111.672 z"
         fill-opacity="0"
         stroke="#1A1919"
         stroke-width="4.8"
         stroke-linecap="round"
         stroke-linejoin="round"
         id="path82" />
      <path
         d="M34.272,185.008 C3.56,99.756 69.936,54.34 69.936,54.34 C63.936,63.004 57.936,97.672 57.936,97.672 C64.272,89.004 82.268,84.672 82.268,84.672 C75.6,91.672 63.604,126.008 63.604,126.008 L77.604,120.34 C63.268,139.676 58.272,185.672 58.272,185.672 C58.268,185.672 53.088,228.152 60.936,268.676 C77.264,352.984 145.268,379.34 188.6,379.34 C231.936,379.34 299.944,352.984 316.268,268.676 C324.116,228.152 318.936,185.672 318.936,185.672 C318.936,185.672 313.936,139.676 299.6,120.34 L313.6,126.008 C313.6,126.008 301.604,91.672 294.936,84.672 C294.936,84.672 312.936,89.004 319.268,97.672 C319.268,97.672 313.268,63.004 307.268,54.34 C307.268,54.34 371.836,98.672 342.936,185.008 M56.604,196.672 C56.604,196.672 47.272,184.676 34.272,185.008 C21.272,185.34 0.272,204.004 16.604,242.672 C32.936,281.34 54.94,283.34 64.272,283.676"
         fill-opacity="0"
         stroke="#1A1919"
         stroke-width="6.4"
         stroke-linecap="round"
         stroke-linejoin="round"
         id="path84" />
      <path
         d="M30.416,209.272 C30.416,209.272 43.58,198.94 56.44,232.94"
         fill-opacity="0"
         stroke="#1A1919"
         stroke-width="4.8"
         stroke-linecap="round"
         stroke-linejoin="round"
         id="path86" />
      <path
         d="M108.164,273.508 C108.164,273.508 124.704,307.488 188.6,307.488 C252.5,307.488 269.048,273.508 269.048,273.508"
         fill-opacity="0"
         stroke="#1A1919"
         stroke-width="6.4"
         stroke-linecap="round"
         stroke-linejoin="round"
         id="path88" />
      <path
         d="M162.884,194.42 C160.22,183.752 153.908,166.3 143.548,160.084 C126.884,150.084 111.884,170.084 105.548,201.084"
         fill-opacity="0"
         stroke="#1A1919"
         stroke-width="8"
         stroke-linecap="round"
         stroke-linejoin="round"
         id="path90" />
      <path
         d="M93.356,188.748 L79.7,185.58 M94.404,198.664 L79.264,201.8 M286.516,188.748 L300.176,185.58 M285.472,198.664 L300.608,201.8"
         fill-opacity="0"
         stroke="#1A1919"
         stroke-width="6.4"
         stroke-linecap="round"
         stroke-linejoin="round"
         id="path92" />
      <path
         d="M170.272,111.672 C170.272,111.672 103.604,140.34 91.604,152.34 C91.604,152.34 89.94,135.672 94.604,126.34 C94.604,126.34 119.936,110.008 170.272,111.672 z"
         fill-opacity="0"
         stroke="#1A1919"
         stroke-width="4.8"
         stroke-linecap="round"
         stroke-linejoin="round"
         id="path94" />
      <path
         d="M69.936,54.34 C99.936,16.676 155.936,5.172 188.936,5.172 L188.268,5.172 C221.268,5.172 277.268,16.676 307.268,54.34 M212.876,234.968 C211.168,248.124 200.948,258.228 188.6,258.228 C176.5,258.228 166.44,248.5 164.448,235.712"
         fill-opacity="0"
         stroke="#1A1919"
         stroke-width="6.4"
         stroke-linecap="round"
         stroke-linejoin="round"
         id="path96" />
      <path
         d="M776.64,568.948 C776.64,568.948 764.48,488.06 758.28,472.672 C749.372,450.568 736.16,442.96 718.948,435.34 C698.612,426.34 657.28,418.008 657.28,418.008 L595.28,418.008 C595.28,418.008 553.948,426.34 533.612,435.34 C516.404,442.96 503.192,450.568 494.28,472.672 C488.084,488.06 473.336,566.968 473.336,566.968 L776.64,568.948"
         fill="#9C7AAA"
         id="path98" />
      <path
         d="M506.612,482.004 C515.524,459.9 528.736,452.292 545.944,444.672 C566.28,435.672 607.308,430.004 607.308,430.004 L669.64,431.34 C669.64,431.34 713.736,445.064 733.54,455.18 C742.692,459.856 747.296,462.736 757.084,471.084 C759.556,468.92 749.6,450.652 718.948,435.34 C699.056,425.404 657.28,418.008 657.28,418.008 L595.28,418.008 C595.28,418.008 553.948,426.34 533.612,435.34 C516.404,442.96 503.192,450.568 494.28,472.672 C488.084,488.06 473.336,566.968 473.336,566.968 L487.424,567.06 C491.52,545.784 501.724,494.144 506.612,482.004"
         fill="#C8B4CC"
         id="path100" />
      <path
         d="M461.444,254.176 C455.944,240.676 447.072,199.152 478.944,146.672 C519.944,79.172 598.444,69.672 598.444,69.672 L601.388,68.096 C629.512,46.872 661.184,44.048 685.444,53.672 C706.64,62.084 715.388,81.136 718.836,92.7 L720.444,92.672 C751.944,87.672 834.444,140.172 792.444,254.672 L778.944,288.176 L471.944,288.176 L461.444,254.176"
         fill="#9D6462"
         id="path102" />
      <g
         clip-path="url(#Clip_1)"
         id="g108">
        <path
           d="M661.04,439.964 C656.884,450.316 647.32,461.424 625.696,464.424 L623.304,464.584 C605.728,460.644 597.008,450.604 592.704,441.048 L661.04,439.964"
           fill="#FFFFFE"
           id="path104" />
        <path
           d="M639.856,568.156 L630.34,520.18 L629.308,520.22 C625.512,543.024 621.696,565.924 621.696,565.924 L639.856,568.156"
           fill="#FFFFFE"
           id="path106" />
      </g>
      <path
         d="M770.148,262.508 C779.612,249.508 798.832,252.316 808.944,271.172 C822.44,296.336 786.504,334.924 760.06,332.216"
         fill="#F7CCAA"
         id="path110" />
      <path
         d="M482.744,262.508 C473.276,249.508 446.172,253.892 443.944,275.172 C439.948,313.336 466.388,334.924 492.832,332.216"
         fill="#F7CCAA"
         id="path112" />
      <path
         d="M589.944,427.172 C599.444,425.172 598.444,409.672 598.444,409.672 L599.276,404.34 L654.276,402.34 L654.116,409.672 C654.116,409.672 653.116,425.172 662.616,427.172 L660.944,439.004 C624.944,448.336 592.612,440.34 592.612,440.34 L589.944,427.172"
         fill="#F7CCAA"
         id="path114" />
      <path
         d="M761.608,288.532 C756.032,298.74 754.08,309.72 761.608,313.84 C765.016,315.7 779.64,318.176 788.944,299.172 C794.064,288.728 793.008,276.488 785.476,272.368 C777.936,268.248 767.188,278.328 761.608,288.532"
         fill="#CF957E"
         id="path116" />
      <path
         d="M491.272,288.532 C496.852,298.74 498.804,309.72 491.272,313.84 C487.868,315.7 474.64,320.508 463.936,299.172 C458.72,288.776 459.876,276.488 467.408,272.368 C474.944,268.248 485.696,278.328 491.272,288.532"
         fill="#CF957E"
         id="path118" />
      <path
         d="M765.944,238.676 C776.444,278.172 778.944,409.172 626.444,409.172 C473.944,409.172 476.444,278.172 486.944,238.676 L490.268,226.468 L492.564,222.8 C501.14,212.348 514.804,202.832 536.824,199.528 C593.456,191.032 619.752,177.256 632.444,129.504 C632.444,129.504 672.444,131.172 698.944,140.172 C698.944,140.172 745.284,158.172 761.948,203.508 L761.724,206.164 C761.056,211.66 760.444,216.396 760.696,219.924 C761.16,226.424 762.628,231.656 764.436,235.784 L765.944,238.676"
         fill="#F7CCAA"
         id="path120" />
      <path
         d="M599.532,408.672 C599.532,408.672 639.872,415.164 654.696,409.424 L655.696,421.172 C655.696,421.172 640.708,445.52 590.22,428.996 L587.944,425.672 C587.944,425.672 599.944,425.172 599.532,408.672"
         fill="#CF957E"
         id="path122" />
      <path
         d="M631.944,130.672 C631.944,130.672 635.444,109.672 644.944,103.672 C654.444,97.672 666.444,94.672 673.944,96.172 C681.444,97.672 690.944,104.672 693.944,110.672 C696.944,116.672 699.944,138.172 699.944,138.172 L703.944,139.172 C703.944,139.172 718.444,133.172 728.944,136.672 C739.444,140.172 746.444,142.672 753.944,156.172 C761.444,169.672 765.944,180.672 764.444,188.172 C762.944,195.672 760.944,201.672 760.944,201.672 C760.944,201.672 741.696,167.172 701.196,144.924 C680.32,133.456 657.196,129.672 631.944,130.672"
         fill="#70434D"
         id="path124" />
      <path
         d="M547.076,292.156 C547.076,298.856 536.004,304.296 522.34,304.296 C508.68,304.296 497.604,298.856 497.604,292.156 C497.604,285.448 508.68,280.012 522.34,280.012 C536.004,280.012 547.076,285.448 547.076,292.156"
         fill="#EC9784"
         id="path126" />
      <path
         d="M754.076,292.156 C754.076,298.856 743.004,304.296 729.34,304.296 C715.68,304.296 704.604,298.856 704.604,292.156 C704.604,285.448 715.68,280.012 729.34,280.012 C743.004,280.012 754.076,285.448 754.076,292.156"
         fill="#EC9784"
         id="path128" />
      <path
         d="M460.612,195.172 C460.612,195.172 466.616,225.84 499.28,218.508 L490.444,225.176 L484.612,259.172 C484.612,259.172 472.276,246.504 461.444,254.176 C461.444,254.176 444.612,216.504 460.612,195.172"
         fill="#70434D"
         id="path130" />
      <path
         d="M762.944,211.676 C762.944,211.676 792.444,210.176 804.944,181.172 C804.944,181.172 806.944,228.676 792.444,254.672 L771.444,258.676 L765.944,238.676 C765.944,238.676 757.944,227.176 762.944,211.676"
         fill="#70434D"
         id="path132" />
      <path
         d="M466.612,175.172 C466.612,175.172 499.692,114.86 576.136,97.336 L598.444,69.672 C598.444,69.672 491.28,83.172 466.612,175.172"
         fill="#C6928F"
         id="path134" />
      <path
         d="M566.488,108.004 C566.488,108.004 590.404,65.548 618.492,57.52 C646.584,49.496 685.368,37.46 709.444,74.908 C709.444,74.908 637.612,40.272 574.612,109.272 C574.612,109.272 559.628,121.464 566.488,108.004"
         fill="#C6928F"
         id="path136" />
      <path
         d="M720.444,92.672 L721.764,101.392 C721.764,101.392 775.944,115.836 798.52,157.824 C798.52,157.824 770.144,87.572 720.444,92.672"
         fill="#C6928F"
         id="path138" />
      <path
         d="M548.644,318.176 C553.644,313.344 549.812,309.008 544.644,310.844 C539.476,312.672 529.64,318.18 524.976,325.344 C520.312,332.508 519.476,342.836 522.476,348.508 C525.476,354.172 530.108,354.188 531.812,346.844 C533.476,339.672 541.644,322.844 548.644,318.176"
         fill="#CF957E"
         id="path140" />
      <path
         d="M703.64,318.176 C698.64,313.344 702.472,309.008 707.64,310.844 C712.808,312.672 722.644,318.18 727.308,325.344 C731.972,332.508 732.808,342.836 729.808,348.508 C726.808,354.172 722.176,354.188 720.472,346.844 C718.808,339.672 710.64,322.844 703.64,318.176"
         fill="#CF957E"
         id="path142" />
      <path
         d="M643.292,371.304 C644.924,373.528 638.296,384.94 626.948,384.936 C615.604,384.94 608.976,373.528 610.604,371.304 C612.048,368.812 618.888,373.468 626.948,373.204 C635.012,373.468 641.856,368.812 643.292,371.304"
         fill="#CF957E"
         id="path144" />
      <path
         d="M733.416,259.404 L747.076,256.24 M732.372,269.324 L747.512,272.456 M521.376,259.404 L507.72,256.24 M522.42,269.324 L507.28,272.456"
         fill-opacity="0"
         stroke="#1A1919"
         stroke-width="4.8"
         stroke-linecap="round"
         stroke-linejoin="round"
         id="path146" />
      <path
         d="M770.148,262.508 C779.612,249.508 800.668,250.708 807.66,270.932 C817.844,300.392 786.504,334.924 760.06,332.216 M793.612,271.924 C793.612,271.924 779.348,267.924 770.148,289.592 M482.752,262.508 C473.284,249.508 452.232,250.708 445.24,270.932 C435.056,300.392 466.396,334.924 492.84,332.216 M459.284,271.924 C459.284,271.924 473.552,267.924 482.752,289.592 M672.596,329.136 C667.356,340.632 654.14,357.708 626.216,357.708 C598.956,357.708 585.716,341.312 580.228,329.964 M638.276,296.84 C638.276,296.84 633.44,283.172 626.444,283.172 C619.448,283.172 614.612,296.84 614.612,296.84"
         fill-opacity="0"
         stroke="#1A1919"
         stroke-width="6.4"
         stroke-linecap="round"
         stroke-linejoin="round"
         id="path148" />
      <path
         d="M651.472,263.08 C655.444,252.66 662.112,240.508 672.528,240.508 C692.376,240.508 698.036,279.176 698.036,279.176"
         fill-opacity="0"
         stroke="#1A1919"
         stroke-width="7.2"
         stroke-linecap="round"
         stroke-linejoin="round"
         id="path150" />
      <path
         d="M662.404,207.72 C672.692,198.452 692.812,199.1 700.26,219.012 M590.084,208.452 C580.068,198.436 559.096,198.588 551.452,219.012"
         fill-opacity="0"
         stroke="#1A1919"
         stroke-width="5.6"
         stroke-linecap="round"
         stroke-linejoin="round"
         id="path152" />
      <path
         d="M765.944,238.676 C776.444,278.172 778.944,411.672 626.444,411.672 C473.944,411.672 476.444,278.172 486.944,238.676 L490.268,226.468"
         fill-opacity="0"
         stroke="#1A1919"
         stroke-width="6.4"
         stroke-linecap="round"
         stroke-linejoin="round"
         id="path154" />
      <path
         d="M703.944,317.672 C703.944,317.672 717.988,330.416 721.944,350.096 M548.944,317.672 C548.944,317.672 534.596,331.604 530.944,350.096"
         fill-opacity="0"
         stroke="#1A1919"
         stroke-width="4.8"
         stroke-linecap="round"
         stroke-linejoin="round"
         id="path156" />
      <path
         d="M599.476,264.164 C595.564,253.52 588.796,240.508 578.02,240.508 C558.172,240.508 552.512,279.176 552.512,279.176"
         fill-opacity="0"
         stroke="#1A1919"
         stroke-width="7.2"
         stroke-linecap="round"
         stroke-linejoin="round"
         id="path158" />
      <path
         d="M479.444,249.176 C483.444,234.176 495.232,205.768 536.824,199.528 C593.456,191.032 619.752,177.256 632.444,129.504 C634.196,122.924 640.2,93.372 666.696,94.424 C698.196,95.672 700.944,127.672 699.944,138.424"
         fill-opacity="0"
         stroke="#1A1919"
         stroke-width="6.4"
         stroke-linecap="round"
         stroke-linejoin="round"
         id="path160" />
      <path
         d="M656.196,96.172 C656.196,96.172 689.444,104.172 686.696,133.672 M646.444,101.424 C646.444,101.424 674.444,110.924 673.696,130.672 M640.196,109.672 C640.196,109.672 657.944,114.924 659.196,126.924"
         fill-opacity="0"
         stroke="#1A1919"
         stroke-width="5.6"
         stroke-linecap="round"
         stroke-linejoin="round"
         id="path162" />
      <path
         d="M703.696,139.924 C710.444,137.172 731.196,128.672 751.196,152.172 C771.196,175.672 759.74,206.516 760.696,219.924 C762.196,240.924 774.196,248.672 774.196,248.672"
         fill-opacity="0"
         stroke="#1A1919"
         stroke-width="6.4"
         stroke-linecap="round"
         stroke-linejoin="round"
         id="path164" />
      <path
         d="M715.444,147.424 C715.444,147.424 731.944,138.424 749.196,149.924 M730.196,158.172 C730.196,158.172 749.196,151.172 759.444,168.172 M743.444,171.672 C743.444,171.672 758.196,168.172 762.444,180.172"
         fill-opacity="0"
         stroke="#1A1919"
         stroke-width="5.6"
         stroke-linecap="round"
         stroke-linejoin="round"
         id="path166" />
      <path
         d="M720.944,102.172 C720.944,102.172 716.944,66.176 685.444,53.672 C653.944,41.172 609.944,49.676 577.444,92.172 M598.444,69.672 C598.444,69.672 519.944,79.172 478.944,146.672 C447.072,199.152 455.944,240.676 461.444,254.176 M720.444,92.672 C751.944,87.672 834.444,140.172 792.444,254.672 M695.736,267.372 L707.928,261.908 M554.908,267.372 L542.712,261.908 M598.444,412.172 C598.444,412.172 599.444,425.172 589.944,427.172 M595.28,418.008 C595.28,418.008 553.948,426.34 533.612,435.34 C516.404,442.96 503.192,450.568 494.28,472.672 C488.084,488.06 473.336,566.968 473.336,566.968 M588.612,420.008 C588.612,420.008 585.612,458.672 627.28,465.34 C627.28,465.34 637.944,467.924 636.696,475.672 C635.444,483.424 621.696,565.924 621.696,565.924 M515.948,485.34 L528.28,566.672"
         fill-opacity="0"
         stroke="#1A1919"
         stroke-width="6.4"
         stroke-linecap="round"
         stroke-linejoin="round"
         id="path168" />
      <path
         d="M575.612,425.008 C575.612,425.008 567.612,465.336 613.28,476.672"
         fill-opacity="0"
         stroke="#1A1919"
         stroke-width="4.8"
         stroke-linecap="round"
         stroke-linejoin="round"
         id="path170" />
      <path
         d="M654.116,412.172 C654.116,412.172 653.116,425.172 662.616,427.172 M657.28,418.008 C657.28,418.008 698.612,426.34 718.948,435.34 C736.16,442.96 749.372,450.568 758.28,472.672 C764.48,488.06 776.64,568.948 776.64,568.948 M663.948,420.008 C663.948,420.008 668.944,458.424 625.696,464.424 M736.612,485.34 L724.28,566.672"
         fill-opacity="0"
         stroke="#1A1919"
         stroke-width="6.4"
         stroke-linecap="round"
         stroke-linejoin="round"
         id="path172" />
      <path
         d="M676.948,425.008 C676.948,425.008 684.948,465.336 639.28,476.672"
         fill-opacity="0"
         stroke="#1A1919"
         stroke-width="4.8"
         stroke-linecap="round"
         stroke-linejoin="round"
         id="path174" />
      <path
         d="M626.252,488.216 C626.252,492.448 622.964,495.872 618.908,495.872 C614.852,495.872 611.568,492.448 611.568,488.216 C611.568,483.992 614.852,480.564 618.908,480.564 C622.964,480.564 626.252,483.992 626.252,488.216"
         fill="#FFFFFE"
         id="path176" />
      <path
         d="M626.252,488.216 C626.252,492.448 622.964,495.872 618.908,495.872 C614.852,495.872 611.568,492.448 611.568,488.216 C611.568,483.992 614.852,480.564 618.908,480.564 C622.964,480.564 626.252,483.992 626.252,488.216 z"
         fill-opacity="0"
         stroke="#1A1919"
         stroke-width="6.4"
         stroke-linecap="round"
         stroke-linejoin="round"
         id="path178" />
      <path
         d="M620.624,533.664 C620.624,537.892 617.34,541.32 613.28,541.32 C609.228,541.32 605.94,537.892 605.94,533.664 C605.94,529.436 609.228,526.008 613.28,526.008 C617.34,526.008 620.624,529.436 620.624,533.664"
         fill="#FFFFFE"
         id="path180" />
      <path
         d="M620.624,533.664 C620.624,537.892 617.34,541.32 613.28,541.32 C609.228,541.32 605.94,537.892 605.94,533.664 C605.94,529.436 609.228,526.008 613.28,526.008 C617.34,526.008 620.624,529.436 620.624,533.664 z M592.612,440.34 C592.612,440.34 624.944,448.336 660.944,439.004"
         fill-opacity="0"
         stroke="#1A1919"
         stroke-width="6.4"
         stroke-linecap="round"
         stroke-linejoin="round"
         id="path182" />
      <path
         d="M503.308,508.672 C503.308,508.672 503.608,533.192 525.02,543.5 M750.644,503.34 C750.644,503.34 750.092,528.348 728.684,538.66"
         fill-opacity="0"
         stroke="#1A1919"
         stroke-width="4.8"
         stroke-linecap="round"
         stroke-linejoin="round"
         id="path184" />
      <path
         d="M630.68,520.972 L640.196,568.948"
         fill-opacity="0"
         stroke="#1A1919"
         stroke-width="6.4"
         stroke-linecap="round"
         stroke-linejoin="round"
         id="path186" />
    </g>
  </g>
</svg>
