<?xml version="1.0" encoding="UTF-8" standalone="no"?>
<!-- Created with Inkscape (http://www.inkscape.org/) -->
<svg xmlns:dc="http://purl.org/dc/elements/1.1/" xmlns:cc="http://creativecommons.org/ns#" xmlns:rdf="http://www.w3.org/1999/02/22-rdf-syntax-ns#" xmlns:svg="http://www.w3.org/2000/svg" xmlns="http://www.w3.org/2000/svg" xmlns:sodipodi="http://sodipodi.sourceforge.net/DTD/sodipodi-0.dtd" xmlns:inkscape="http://www.inkscape.org/namespaces/inkscape" width="1200" height="900" viewBox="0 0 317.50001 238.12499" version="1.1" id="svg8" inkscape:version="0.92.3 (2405546, 2018-03-11)" sodipodi:docname="calendar sign.svg" inkscape:export-filename="C:\Users\Silvia\Desktop\calendar sign finished.png" inkscape:export-xdpi="96" inkscape:export-ydpi="96">
  <defs id="defs2">
    <inkscape:perspective sodipodi:type="inkscape:persp3d" inkscape:vp_x="0 : 105 : 1" inkscape:vp_y="0 : 999.99998 : 0" inkscape:vp_z="297 : 105 : 1" inkscape:persp3d-origin="148.5 : 69.999999 : 1" id="perspective5020"/>
  </defs>
  <sodipodi:namedview id="base" pagecolor="#ffffff" bordercolor="#666666" borderopacity="1.0" inkscape:pageopacity="0.0" inkscape:pageshadow="2" inkscape:zoom="0.48" inkscape:cx="699.09815" inkscape:cy="423.05383" inkscape:document-units="mm" inkscape:current-layer="layer1" showgrid="false" inkscape:window-width="1366" inkscape:window-height="705" inkscape:window-x="-8" inkscape:window-y="-8" inkscape:window-maximized="1" inkscape:snap-global="false" showguides="false" units="px"/>
  <metadata id="metadata5">
    <rdf:RDF>
      <cc:Work rdf:about="">
        <dc:format>image/svg+xml</dc:format>
        <dc:type rdf:resource="http://purl.org/dc/dcmitype/StillImage"/>
        <dc:title/>
      </cc:Work>
    </rdf:RDF>
  </metadata>
  <g inkscape:label="Layer 1" inkscape:groupmode="layer" id="layer1" transform="translate(0,-58.87501)">
    <rect ry="1.9239042" y="59.007309" x="0.13229166" height="237.86043" width="317.23541" id="rect4749" style="opacity:0.98000004;fill:#87de87;fill-opacity:1;fill-rule:evenodd;stroke:#c9af9c;stroke-width:0.26458332;stroke-opacity:1" rx="1.9239042"/>
    <rect ry="0.023805993" y="120.19183" x="53.534836" height="137.80513" width="201.86255" id="rect5018" style="fill:#e8c6ae;fill-opacity:1;fill-rule:evenodd;stroke:#e8c6ae;stroke-width:0.26458335;stroke-opacity:1" rx="0.31612882"/>
    <rect style="fill:#666666;fill-opacity:0.23888891;fill-rule:evenodd;stroke:#c9af9c;stroke-width:0.26458335;stroke-opacity:1" id="rect5016" width="202.06926" height="27.56102" x="53.466743" y="120.24519" ry="0" rx="0"/>
    <path sodipodi:nodetypes="ccccc" inkscape:connector-curvature="0" id="path5055" d="m 53.310082,121.8581 200.932278,-0.72343 c -5.24483,51.8329 -6.04142,108.18966 10.84497,129.40379 -69.97088,9.13995 -132.57365,6.55169 -204.082286,6.20586 z" style="fill:#bdc3b0;fill-opacity:1;fill-rule:evenodd;stroke:none;stroke-width:0.26458332;stroke-opacity:1"/>
    <path style="fill:#f6e8de;fill-opacity:1;fill-rule:evenodd;stroke:#f4e3d7;stroke-width:0.26458332;stroke-opacity:1" d="M 52.301201,119.37742 H 254.58858 c 0.47589,45.50471 -3.50321,105.35692 10.52362,128.4508 -69.97487,8.89086 -141.29825,9.69072 -212.810999,9.35433 z" id="rect4936" inkscape:connector-curvature="0" sodipodi:nodetypes="ccccc"/>
    <rect ry="0.38478079" y="-146.85577" x="52.301201" height="27.478338" width="202.28738" id="rect4938" style="fill:#ffb380;fill-rule:evenodd;stroke:#ffb380;stroke-width:0.26458332;stroke-opacity:1" rx="0.38478079" transform="scale(1,-1)"/>
    <rect ry="0" y="195.23518" x="126.40503" height="19.293295" width="27.478331" id="rect4964" style="fill:#917c6f;fill-rule:evenodd;stroke:#917c6f;stroke-width:0.26458332;stroke-opacity:1" rx="0"/>
    <rect rx="0" style="fill:#917c6f;fill-rule:evenodd;stroke:#917c6f;stroke-width:0.26458332;stroke-opacity:1" id="rect4966" width="27.478331" height="19.293295" x="171.33276" y="195.23518" ry="0"/>
    <rect ry="0" y="195.23518" x="215.51962" height="19.293295" width="27.478331" id="rect4968" style="fill:#917c6f;fill-rule:evenodd;stroke:#917c6f;stroke-width:0.26458332;stroke-opacity:1" rx="0"/>
    <rect rx="0" style="fill:#917c6f;fill-rule:evenodd;stroke:#917c6f;stroke-width:0.26458332;stroke-opacity:1" id="rect4970" width="27.478331" height="19.293295" x="126.40503" y="168.19533" ry="0"/>
    <rect ry="0" y="168.19533" x="171.33276" height="19.293295" width="27.478331" id="rect4972" style="fill:#917c6f;fill-rule:evenodd;stroke:#917c6f;stroke-width:0.26458332;stroke-opacity:1" rx="0"/>
    <rect rx="0" style="fill:#917c6f;fill-rule:evenodd;stroke:#917c6f;stroke-width:0.26458332;stroke-opacity:1" id="rect4974" width="27.478331" height="19.293295" x="215.51962" y="168.19533" ry="0"/>
    <rect ry="0" y="223.88283" x="126.40503" height="19.293295" width="27.478331" id="rect4976" style="fill:#917c6f;fill-rule:evenodd;stroke:#917c6f;stroke-width:0.26458332;stroke-opacity:1" rx="0"/>
    <path style="fill:#917c6f;fill-rule:evenodd;stroke:#917c6f;stroke-width:0.26458332;stroke-opacity:1" d="m 170.25682,224.02899 h 27.77064 c 0.72924,9.40677 1.05337,14.7565 2.2167,19.02536 -8.52668,0.3487 -18.48762,0.61171 -29.02481,0.47462 -0.32084,-6.16819 -0.64169,-10.53544 -0.96253,-19.49998 z" id="rect4978" inkscape:connector-curvature="0" sodipodi:nodetypes="ccccc"/>
    <path style="fill:#917c6f;fill-rule:evenodd;stroke:#917c6f;stroke-width:0.26458332;stroke-opacity:1" d="m 215.69545,224.02899 h 27.47833 c -0.0663,8.95725 1.56753,15.12044 2.79049,18.15642 -7.89537,0.41436 -17.83896,1.28134 -28.61519,0.72346 z" id="rect4980" inkscape:connector-curvature="0" sodipodi:nodetypes="ccccc"/>
    <rect rx="0" style="fill:#917c6f;fill-rule:evenodd;stroke:#917c6f;stroke-width:0.26458332;stroke-opacity:1" id="rect4982" width="27.478331" height="19.293295" x="82.702774" y="195.23518" ry="0"/>
    <rect ry="0" y="223.88283" x="82.702774" height="19.293295" width="27.478331" id="rect4986" style="fill:#917c6f;fill-rule:evenodd;stroke:#917c6f;stroke-width:0.26458332;stroke-opacity:1" rx="0"/>
    <g id="g5078"/>
    <g id="g5102" transform="translate(0,0.0472868)">
      <g id="g5091">
        <rect ry="6.8158832" y="128.09073" x="79.451096" height="12.226132" width="22.807247" id="rect4826" style="fill:#82c782;fill-opacity:1;fill-rule:evenodd;stroke:none;stroke-width:0.26458332" rx="6.8158827"/>
        <rect ry="6.8158832" y="128.15138" x="78.939766" height="11.83833" width="22.083822" id="rect4828" style="fill:#87de87;fill-opacity:1;fill-rule:evenodd;stroke:none;stroke-width:0.26458332" rx="6.8158827"/>
      </g>
      <g id="g5074">
        <path inkscape:connector-curvature="0" id="path4832" d="m 91.054827,105.61426 c 3.28299,0 5.92598,3.03988 5.92598,6.81588 v 13.84657 c 0,3.776 -2.64299,6.81589 -5.92598,6.81589 -3.283,0 -5.92598,-3.03989 -5.92598,-6.81589 v -13.84657 c 0,-3.776 2.64298,-6.81588 5.92598,-6.81588 z" style="fill:#847165;fill-opacity:1;fill-rule:evenodd;stroke:none;stroke-width:0.26458332;stroke-opacity:1"/>
        <rect ry="6.8158832" y="105.51091" x="83.772903" height="27.478338" width="11.851964" id="rect4834" style="fill:#917c6f;fill-rule:evenodd;stroke:#917c6f;stroke-width:0.26458332;stroke-opacity:1" rx="6.8158836"/>
      </g>
    </g>
    <g id="g5116" transform="translate(129.53559,0.0472868)">
      <g id="g5108">
        <rect rx="6.8158827" style="fill:#82c782;fill-opacity:1;fill-rule:evenodd;stroke:none;stroke-width:0.26458332" id="rect5104" width="22.807247" height="12.226132" x="79.451096" y="128.09073" ry="6.8158832"/>
        <rect rx="6.8158827" style="fill:#87de87;fill-opacity:1;fill-rule:evenodd;stroke:none;stroke-width:0.26458332" id="rect5106" width="22.083822" height="11.83833" x="78.939766" y="128.15138" ry="6.8158832"/>
      </g>
      <g id="g5114">
        <path style="fill:#847165;fill-opacity:1;fill-rule:evenodd;stroke:none;stroke-width:0.26458332;stroke-opacity:1" d="m 91.054827,105.61426 c 3.28299,0 5.92598,3.03988 5.92598,6.81588 v 13.84657 c 0,3.776 -2.64299,6.81589 -5.92598,6.81589 -3.283,0 -5.92598,-3.03989 -5.92598,-6.81589 v -13.84657 c 0,-3.776 2.64298,-6.81588 5.92598,-6.81588 z" id="path5110" inkscape:connector-curvature="0"/>
        <rect rx="6.8158836" style="fill:#917c6f;fill-rule:evenodd;stroke:#917c6f;stroke-width:0.26458332;stroke-opacity:1" id="rect5112" width="11.851964" height="27.478338" x="83.772903" y="105.51091" ry="6.8158832"/>
      </g>
    </g>
    <g transform="translate(64.76778,0.0472868)" id="g5130">
      <g id="g5122">
        <rect ry="6.8158832" y="128.09073" x="79.451096" height="12.226132" width="22.807247" id="rect5118" style="fill:#82c782;fill-opacity:1;fill-rule:evenodd;stroke:none;stroke-width:0.26458332" rx="6.8158827"/>
        <rect ry="6.8158832" y="128.15138" x="78.939766" height="11.83833" width="22.083822" id="rect5120" style="fill:#87de87;fill-opacity:1;fill-rule:evenodd;stroke:none;stroke-width:0.26458332" rx="6.8158827"/>
      </g>
      <g id="g5128">
        <path inkscape:connector-curvature="0" id="path5124" d="m 91.054827,105.61426 c 3.28299,0 5.92598,3.03988 5.92598,6.81588 v 13.84657 c 0,3.776 -2.64299,6.81589 -5.92598,6.81589 -3.283,0 -5.92598,-3.03989 -5.92598,-6.81589 v -13.84657 c 0,-3.776 2.64298,-6.81588 5.92598,-6.81588 z" style="fill:#847165;fill-opacity:1;fill-rule:evenodd;stroke:none;stroke-width:0.26458332;stroke-opacity:1"/>
        <rect ry="6.8158832" y="105.51091" x="83.772903" height="27.478338" width="11.851964" id="rect5126" style="fill:#917c6f;fill-rule:evenodd;stroke:#917c6f;stroke-width:0.26458332;stroke-opacity:1" rx="6.8158836"/>
      </g>
    </g>
  </g>
</svg>